<?xml version="1.0" encoding="UTF-8"?>
<svg width="34px" height="30px" data-name="Calque 1" version="1.1" viewBox="0 0 34 25.5" xmlns="http://www.w3.org/2000/svg">
 <path fill="none" d="M0,12.75V0h34v25.5H0v-12.75Z"/>
 <path fill="#000000" d="m10.75 2.5977 0.92578 1.9199c1.0392 0.27157 1.4141 0.95988 1.4141 2.2832 0 0.21159-9e-3 0.40401-0.0293 0.58398l2.2539 4.6699c0.52053-0.15553 0.95962-0.1491 1.3223-0.16992 0.96354 0.04509 0.58137 0.05208 2.1523 0.35547 1.19 0.26 3.368 0.83551 4.388 1.6855 1.1933 1.08 1.2726 2.4058 0.25264 3.4258-1.3653 0.96317-2.945 1.5568-4.5723 2.0449l1.3828 2.8652c3.0163-1.022 5.6965-3.2096 7.209-6.1914 1.28-2.72 1.3616-3.6605 0.43164-7.2305-0.51-2.29-1.361-4.6697-1.791-5.1797-1.19-1.62-4.6691-1.2802-6.5391 0.58985-0.94 0.94-2.1308 1.6992-2.5508 1.6992-0.51 0-1.6208-0.75922-2.5508-1.6992-1.098-1.0923-2.459-1.654-3.6992-1.6523zm-1.2266 0.20703c-0.4874 0.17382-0.92656 0.45701-1.2832 0.85547-1.87 1.87-3.2309 8.8406-2.2109 11.391 1.11 2.89 4.001 6.1188 6.291 7.0488 2.163 0.89961 4.5196 1.0144 6.7559 0.49414l-1.4688-3.041c-0.03298-3.9e-5 -0.06463-2e-3 -0.09766-2e-3 -2.72 0-4.3575-0.73452-6.1191-1.9512-0.66803-0.46138-1.4465-1.0991-1.5137-1.9082-0.056707-0.68274 0.48927-1.3357 0.99414-1.7988 0.8864-0.81305 2.088-1.0536 3.2969-1.4668l-1.7734-3.6699c-0.30029 0.22512-0.71016 0.36008-1.2539 0.42383-2.04 0.34-3.2309-1.5302-2.3809-3.7402 0.1842-0.55996 0.78888-0.93757 1.5371-1.0312zm13.186 1.5801c0.13461 0.00303 0.27141 0.013906 0.41016 0.035156 1.45 0.17 1.9512 0.85086 1.9512 2.3809 0 1.53-0.50117 2.2089-1.9512 2.3789-2.04 0.34-3.2289-1.5302-2.3789-3.7402 0.21875-0.665 1.0265-1.0759 1.9688-1.0547z"/>
</svg>